# xmcd CD database file
#
# Track frame offsets:
#	150
#	17037
#	40035
#	53175
#	76839
#	101325
#	128283
#	149537
#	174437
#	191185
#	215487
#	231310
#	254645
#	275501
#
# Disc length: 3939 seconds
#
# Revision: 0
# Processed by: cddbd v1.5.2PL0 Copyright (c) Steve Scherf et al.
# Submitted via: CDex 1.51
#
DISCID=c20f610e
DTITLE=Irvin Mayfield and Ellis Marsalis - Love Songs, Ballads and Standards
DYEAR=2008
DGENRE=Jazz
TTITLE0=Yesterday
TTITLE1=Superstar
TTITLE2=Romeo and Juliet
TTITLE3=My One and Only Love
TTITLE4=Mo' Better Blues
TTITLE5=Round Midnight
TTITLE6=Don't Know Why
TTITLE7=In a Sentimental Mood
TTITLE8=Come Rain or Shine
TTITLE9=Like a Star
TTITLE10=Blame It On the Sun
TTITLE11=A House is Not a Home
TTITLE12=You and I
TTITLE13=Yesterday
EXTD=YEAR: 2008
EXTT0=
EXTT1=
EXTT2=
EXTT3=
EXTT4=
EXTT5=
EXTT6=
EXTT7=
EXTT8=
EXTT9=
EXTT10=
EXTT11=
EXTT12=
EXTT13=
PLAYORDER=
